<svg width="142" height="156" viewBox="0 0 142 156" fill="none" xmlns="http://www.w3.org/2000/svg">
<path fill-rule="evenodd" clip-rule="evenodd" d="M8 8L86 104C112.51 104 134 82.5097 134 56C134 29.4903 112.51 8 86 8H8ZM91.3864 91.5997C108.714 89.0001 122 74.0516 122 56C122 36.1178 105.882 20 86 20H66.2499C74.8006 29.5536 80 42.1696 80 56C80 62.2546 78.9345 68.2673 76.9742 73.8616L91.3864 91.5997ZM67.539 62.2491C67.8427 60.2112 68 58.1246 68 56C68 40.722 59.8425 27.3494 47.6455 20H33.2116L67.539 62.2491Z" fill="white"/>
<g clip-path="url(#clip0_2010_8760)">
<path d="M27.8032 87.5655C27.3467 87.1088 26.8048 86.7465 26.2083 86.4994C25.6118 86.2522 24.9724 86.125 24.3268 86.125C23.6811 86.125 23.0417 86.2522 22.4453 86.4994C21.8488 86.7465 21.3068 87.1088 20.8504 87.5655L19.9031 88.5127L18.9558 87.5655C18.0338 86.6435 16.7833 86.1255 15.4794 86.1255C14.1755 86.1255 12.925 86.6435 12.003 87.5655C11.081 88.4875 10.563 89.7379 10.563 91.0419C10.563 92.3458 11.081 93.5963 12.003 94.5183L12.9503 95.4656L19.9031 102.418L26.8559 95.4656L27.8032 94.5183C28.2598 94.0618 28.6221 93.5199 28.8692 92.9234C29.1164 92.3269 29.2436 91.6875 29.2436 91.0419C29.2436 90.3962 29.1164 89.7568 28.8692 89.1603C28.6221 88.5639 28.2598 88.0219 27.8032 87.5655V87.5655Z" fill="white" stroke="white" stroke-width="1.78735" stroke-linecap="round" stroke-linejoin="round"/>
</g>
<path d="M23.136 142C22.976 142 22.896 141.92 22.896 141.76V123.928C22.896 123.768 22.976 123.688 23.136 123.688H27.936C30.976 123.688 33.304 124.488 34.92 126.088C36.536 127.688 37.344 129.96 37.344 132.904C37.344 135.8 36.528 138.04 34.896 139.624C33.28 141.208 30.952 142 27.912 142H23.136ZM27.888 140.008C30.096 140.008 31.856 139.488 33.168 138.448C34.48 137.408 35.136 135.56 35.136 132.904C35.136 128.088 32.728 125.68 27.912 125.68H25.344C25.184 125.68 25.104 125.76 25.104 125.92V139.768C25.104 139.928 25.184 140.008 25.344 140.008H27.888ZM46.2101 142.24C44.9621 142.24 43.8421 141.944 42.8501 141.352C41.8741 140.76 41.1061 139.936 40.5461 138.88C40.0021 137.824 39.7301 136.632 39.7301 135.304C39.7301 134.008 40.0021 132.84 40.5461 131.8C41.1061 130.76 41.8741 129.952 42.8501 129.376C43.8421 128.784 44.9621 128.488 46.2101 128.488C47.4581 128.488 48.5781 128.784 49.5701 129.376C50.5621 129.952 51.3381 130.76 51.8981 131.8C52.4581 132.84 52.7381 134.008 52.7381 135.304C52.7381 136.632 52.4581 137.824 51.8981 138.88C51.3541 139.92 50.5861 140.744 49.5941 141.352C48.6021 141.944 47.4741 142.24 46.2101 142.24ZM46.2101 140.44C47.0421 140.44 47.7941 140.216 48.4661 139.768C49.1541 139.32 49.6901 138.712 50.0741 137.944C50.4741 137.16 50.6741 136.28 50.6741 135.304C50.6741 134.376 50.4821 133.528 50.0981 132.76C49.7141 131.992 49.1781 131.392 48.4901 130.96C47.8181 130.512 47.0581 130.288 46.2101 130.288C45.3781 130.288 44.6181 130.504 43.9301 130.936C43.2581 131.368 42.7301 131.968 42.3461 132.736C41.9621 133.504 41.7701 134.36 41.7701 135.304C41.7701 136.28 41.9621 137.16 42.3461 137.944C42.7301 138.728 43.2581 139.344 43.9301 139.792C44.6181 140.224 45.3781 140.44 46.2101 140.44ZM61.4903 142.24C60.2423 142.24 59.1303 141.944 58.1543 141.352C57.1783 140.76 56.4183 139.936 55.8743 138.88C55.3303 137.824 55.0583 136.632 55.0583 135.304C55.0583 134.008 55.3303 132.84 55.8743 131.8C56.4183 130.76 57.1783 129.952 58.1543 129.376C59.1303 128.784 60.2423 128.488 61.4903 128.488C62.9143 128.488 64.1303 128.848 65.1383 129.568C66.1623 130.272 66.8503 131.232 67.2023 132.448L67.2263 132.52C67.2263 132.648 67.1463 132.712 66.9863 132.712H65.3063C65.1623 132.712 65.0663 132.648 65.0183 132.52C64.7463 131.832 64.2903 131.288 63.6503 130.888C63.0263 130.488 62.3063 130.288 61.4903 130.288C60.6583 130.288 59.9063 130.504 59.2343 130.936C58.5783 131.368 58.0583 131.968 57.6743 132.736C57.2903 133.488 57.0983 134.344 57.0983 135.304C57.0983 136.296 57.2823 137.184 57.6503 137.968C58.0343 138.736 58.5623 139.344 59.2343 139.792C59.9063 140.224 60.6583 140.44 61.4903 140.44C62.3703 140.44 63.1303 140.216 63.7703 139.768C64.4263 139.304 64.8823 138.688 65.1383 137.92C65.1703 137.792 65.2583 137.728 65.4023 137.728H67.1063C67.2823 137.728 67.3543 137.816 67.3223 137.992C66.9863 139.32 66.2903 140.36 65.2343 141.112C64.1943 141.864 62.9463 142.24 61.4903 142.24ZM74.2718 142C73.1998 142 72.4078 141.76 71.8958 141.28C71.3838 140.8 71.1278 139.928 71.1278 138.664V130.768C71.1278 130.608 71.0478 130.528 70.8878 130.528H69.2318C69.0718 130.528 68.9918 130.448 68.9918 130.288V128.968C68.9918 128.808 69.0718 128.728 69.2318 128.728H70.8878C71.0478 128.728 71.1278 128.648 71.1278 128.488V123.928C71.1278 123.768 71.2078 123.688 71.3678 123.688H72.9278C73.0878 123.688 73.1678 123.768 73.1678 123.928V128.488C73.1678 128.648 73.2478 128.728 73.4078 128.728H75.9038C76.0638 128.728 76.1438 128.808 76.1438 128.968V130.288C76.1438 130.448 76.0638 130.528 75.9038 130.528H73.4078C73.2478 130.528 73.1678 130.608 73.1678 130.768V138.256C73.1678 138.72 73.1998 139.088 73.2638 139.36C73.3278 139.616 73.4718 139.824 73.6958 139.984C73.9198 140.128 74.2718 140.2 74.7518 140.2H75.8798C76.0398 140.2 76.1198 140.28 76.1198 140.44V141.76C76.1198 141.92 76.0398 142 75.8798 142H74.2718ZM84.2726 142.24C83.0246 142.24 81.9046 141.944 80.9126 141.352C79.9366 140.76 79.1686 139.936 78.6086 138.88C78.0646 137.824 77.7926 136.632 77.7926 135.304C77.7926 134.008 78.0646 132.84 78.6086 131.8C79.1686 130.76 79.9366 129.952 80.9126 129.376C81.9046 128.784 83.0246 128.488 84.2726 128.488C85.5206 128.488 86.6406 128.784 87.6326 129.376C88.6246 129.952 89.4006 130.76 89.9606 131.8C90.5206 132.84 90.8006 134.008 90.8006 135.304C90.8006 136.632 90.5206 137.824 89.9606 138.88C89.4166 139.92 88.6486 140.744 87.6566 141.352C86.6646 141.944 85.5366 142.24 84.2726 142.24ZM84.2726 140.44C85.1046 140.44 85.8566 140.216 86.5286 139.768C87.2166 139.32 87.7526 138.712 88.1366 137.944C88.5366 137.16 88.7366 136.28 88.7366 135.304C88.7366 134.376 88.5446 133.528 88.1606 132.76C87.7766 131.992 87.2406 131.392 86.5526 130.96C85.8806 130.512 85.1206 130.288 84.2726 130.288C83.4406 130.288 82.6806 130.504 81.9926 130.936C81.3206 131.368 80.7926 131.968 80.4086 132.736C80.0246 133.504 79.8326 134.36 79.8326 135.304C79.8326 136.28 80.0246 137.16 80.4086 137.944C80.7926 138.728 81.3206 139.344 81.9926 139.792C82.6806 140.224 83.4406 140.44 84.2726 140.44ZM93.9128 142C93.7528 142 93.6728 141.92 93.6728 141.76V128.968C93.6728 128.808 93.7528 128.728 93.9128 128.728H95.4728C95.6328 128.728 95.7128 128.808 95.7128 128.968V130.12C95.7128 130.248 95.7528 130.312 95.8328 130.312C95.8968 130.312 95.9528 130.28 96.0008 130.216C96.5608 129.608 97.1528 129.168 97.7768 128.896C98.4168 128.624 99.1288 128.488 99.9128 128.488C100.073 128.488 100.153 128.568 100.153 128.728V130.288C100.153 130.448 100.073 130.528 99.9128 130.528H99.4568C98.3848 130.528 97.5288 130.848 96.8888 131.488C96.1048 132.24 95.7128 133.416 95.7128 135.016V141.76C95.7128 141.92 95.6328 142 95.4728 142H93.9128ZM102.632 142C102.472 142 102.392 141.92 102.392 141.76V128.968C102.392 128.808 102.472 128.728 102.632 128.728H104.192C104.352 128.728 104.432 128.808 104.432 128.968V141.76C104.432 141.92 104.352 142 104.192 142H102.632ZM103.424 126.448C102.992 126.448 102.624 126.304 102.32 126.016C102.016 125.712 101.864 125.352 101.864 124.936C101.864 124.52 102.016 124.168 102.32 123.88C102.624 123.592 102.992 123.448 103.424 123.448C103.856 123.448 104.224 123.592 104.528 123.88C104.832 124.168 104.984 124.52 104.984 124.936C104.984 125.352 104.832 125.712 104.528 126.016C104.224 126.304 103.856 126.448 103.424 126.448ZM111.597 142.24C110.269 142.24 109.213 141.904 108.429 141.232C107.661 140.56 107.277 139.64 107.277 138.472C107.277 137.32 107.709 136.408 108.573 135.736C109.277 135.176 110.293 134.76 111.621 134.488L116.133 133.624C116.277 133.592 116.349 133.504 116.349 133.36C116.301 132.416 116.029 131.696 115.533 131.2C114.925 130.592 114.109 130.288 113.085 130.288C112.301 130.288 111.613 130.488 111.021 130.888C110.445 131.288 110.061 131.824 109.869 132.496C109.821 132.64 109.733 132.712 109.605 132.712H108.045C107.869 132.712 107.797 132.624 107.829 132.448C108.101 131.2 108.725 130.232 109.701 129.544C110.677 128.84 111.813 128.488 113.109 128.488C113.893 128.488 114.621 128.608 115.293 128.848C115.965 129.072 116.533 129.408 116.997 129.856C117.605 130.432 117.989 131.096 118.149 131.848C118.309 132.6 118.389 133.376 118.389 134.176V141.76C118.389 141.92 118.309 142 118.149 142H116.589C116.429 142 116.349 141.92 116.349 141.76V140.392C116.349 140.264 116.309 140.2 116.229 140.2C116.165 140.2 116.109 140.232 116.061 140.296C115.661 140.792 115.221 141.184 114.741 141.472C113.925 141.984 112.877 142.24 111.597 142.24ZM111.837 140.44C112.653 140.44 113.357 140.288 113.949 139.984C114.813 139.536 115.421 138.952 115.773 138.232C116.141 137.512 116.341 136.6 116.373 135.496C116.373 135.416 116.349 135.36 116.301 135.328C116.253 135.28 116.189 135.264 116.109 135.28L112.053 136.096C111.061 136.288 110.333 136.6 109.869 137.032C109.501 137.4 109.317 137.864 109.317 138.424C109.317 139.032 109.541 139.52 109.989 139.888C110.453 140.256 111.069 140.44 111.837 140.44Z" fill="white"/>
<defs>
<clipPath id="clip0_2010_8760">
<rect width="21.4482" height="21.4482" fill="white" transform="translate(9 83)"/>
</clipPath>
</defs>
</svg>
