<svg width="142" height="112" viewBox="0 0 142 112" fill="currentColor" xmlns="http://www.w3.org/2000/svg">
<path fill-rule="evenodd" clip-rule="evenodd" d="M8 8L86 104C112.51 104 134 82.5097 134 56C134 29.4903 112.51 8 86 8H8ZM91.3864 91.5997C108.714 89.0001 122 74.0516 122 56C122 36.1178 105.882 20 86 20H66.2499C74.8006 29.5536 80 42.1696 80 56C80 62.2546 78.9345 68.2673 76.9742 73.8616L91.3864 91.5997ZM67.539 62.2491C67.8427 60.2112 68 58.1246 68 56C68 40.722 59.8425 27.3494 47.6455 20H33.2116L67.539 62.2491Z" fill="currentColor"/>
<g clip-path="url(#clip0_2010_8760)">
<path d="M27.8032 87.5655C27.3467 87.1088 26.8048 86.7465 26.2083 86.4994C25.6118 86.2522 24.9724 86.125 24.3268 86.125C23.6811 86.125 23.0417 86.2522 22.4453 86.4994C21.8488 86.7465 21.3068 87.1088 20.8504 87.5655L19.9031 88.5127L18.9558 87.5655C18.0338 86.6435 16.7833 86.1255 15.4794 86.1255C14.1755 86.1255 12.925 86.6435 12.003 87.5655C11.081 88.4875 10.563 89.7379 10.563 91.0419C10.563 92.3458 11.081 93.5963 12.003 94.5183L12.9503 95.4656L19.9031 102.418L26.8559 95.4656L27.8032 94.5183C28.2598 94.0618 28.6221 93.5199 28.8692 92.9234C29.1164 92.3269 29.2436 91.6875 29.2436 91.0419C29.2436 90.3962 29.1164 89.7568 28.8692 89.1603C28.6221 88.5639 28.2598 88.0219 27.8032 87.5655V87.5655Z" fill="currentColor" stroke="white" stroke-width="1.78735" stroke-linecap="round" stroke-linejoin="round"/>
</g>
<defs>
<clipPath id="clip0_2010_8760">
<rect width="21.4482" height="21.4482" fill="currentColor" transform="translate(9 83)"/>
</clipPath>
</defs>
</svg>
